<svg id="Group_74" data-name="Group 74" xmlns="http://www.w3.org/2000/svg" width="412" height="870.725" viewBox="0 0 412 870.725">
  <g id="Group_76" data-name="Group 76">
    <rect id="Rectangle_29" data-name="Rectangle 29" width="412" height="870" fill="#222831"/>
  </g>
  <g id="Group_50" data-name="Group 50" transform="translate(282.313 675)">
    <path id="Path_3192" data-name="Path 3192" d="M526.9,207.083a20.3,20.3,0,0,0,20.3-20.3V164.719a20.3,20.3,0,1,0-40.6,0v22.061A20.3,20.3,0,0,0,526.9,207.083Z" transform="translate(-506.602 -77.827)" fill="#ff5722"/>
    <path id="Path_3193" data-name="Path 3193" d="M617.853,293.3a20.3,20.3,0,0,0,20.3-20.3V250.8a20.3,20.3,0,1,0-40.6,0v22.183A20.3,20.3,0,0,0,617.839,293.3Z" transform="translate(-527.468 -97.577)" fill="#00adb5"/>
    <path id="Path_3194" data-name="Path 3194" d="M617.853,170.758a20.3,20.3,0,0,0,20.3-20.3V78.3a20.3,20.3,0,1,0-40.6,0v72.153A20.3,20.3,0,0,0,617.853,170.758Z" transform="translate(-527.468 -58)" fill="#ff5722"/>
  </g>
</svg>
