<svg xmlns="http://www.w3.org/2000/svg" width="35.156" height="30.542" viewBox="0 0 35.156 30.542">
  <g id="download" transform="translate(0 -1)">
    <path id="Path_3200" data-name="Path 3200" d="M1.1,9.9A1.1,1.1,0,0,1,2.2,11v5.493a2.2,2.2,0,0,0,2.2,2.2H30.761a2.2,2.2,0,0,0,2.2-2.2V11a1.1,1.1,0,1,1,2.2,0v5.493a4.394,4.394,0,0,1-4.394,4.394H4.394A4.394,4.394,0,0,1,0,16.492V11A1.1,1.1,0,0,1,1.1,9.9Z" transform="translate(0 10.655)" fill="#eee"/>
    <path id="Path_3201" data-name="Path 3201" d="M11.413,24.849a1.1,1.1,0,0,0,1.556,0l6.592-6.592A1.1,1.1,0,1,0,18.005,16.7L13.29,21.419V2.1a1.1,1.1,0,1,0-2.2,0v19.32L6.377,16.7a1.1,1.1,0,1,0-1.556,1.556Z" transform="translate(5.387)" fill="#eee"/>
  </g>
</svg>
