<svg xmlns="http://www.w3.org/2000/svg" width="27.771" height="26.036" viewBox="0 0 27.771 26.036">
  <path id="heart" d="M13.886,4.77,12.641,3.491C9.72.488,4.363,1.524,2.43,5.3c-.908,1.776-1.113,4.339.545,7.611,1.6,3.15,4.919,6.924,10.911,11.034C19.877,19.834,23.2,16.061,24.8,12.91c1.658-3.274,1.455-5.835.545-7.611C23.408,1.524,18.051.486,15.13,3.489Zm0,21.266C-12.728,8.449,5.691-5.277,13.58,1.984c.1.1.207.194.305.3q.147-.153.305-.3C22.078-5.28,40.5,8.448,13.886,26.036Z" transform="translate(0 0)" fill="#eee"/>
</svg>
