<svg xmlns="http://www.w3.org/2000/svg" width="49.789" height="50.598" viewBox="0 0 49.789 50.598">
  <g id="logo_white" transform="translate(-64.755 -58)">
    <g id="Group_44" data-name="Group 44" transform="translate(77.362 67.962)">
      <rect id="Rectangle_37" data-name="Rectangle 37" width="2.42" height="0.187" transform="translate(11.431 22.757) rotate(-81.807)" fill="#eee"/>
      <path id="Path_3181" data-name="Path 3181" d="M351.388,417.05l.161-.023-.343-2.395-.161.023h0a3.855,3.855,0,0,1-1.093,0l-.343,2.395A6.266,6.266,0,0,0,351.388,417.05Z" transform="translate(-337.991 -394.267)" fill="#eee"/>
      <path id="Path_3182" data-name="Path 3182" d="M368.4,361.038l.343,2.395a8.168,8.168,0,0,0,6.8-7.027l-2.394-.35A5.752,5.752,0,0,1,368.4,361.038Z" transform="translate(-355.185 -340.673)" fill="#eee"/>
      <path id="Path_3183" data-name="Path 3183" d="M424.19,267.175l2.394.349a29.848,29.848,0,0,0,0-8.61l-2.394.349A27.435,27.435,0,0,1,424.19,267.175Z" transform="translate(-406.231 -251.791)" fill="#eee"/>
      <path id="Path_3184" data-name="Path 3184" d="M236.777,335.668a1.21,1.21,0,0,0-1.195,1.195h0c0,6.015-4.58,10.767-10.082,10.767s-10.081-4.752-10.081-10.767h0a1.21,1.21,0,0,0-2.419,0h0c0,6.792,4.9,12.48,11.29,13.124v2.275h0a1.21,1.21,0,0,0,2.419,0v-2.275c6.389-.644,11.29-6.333,11.29-13.124h0A1.21,1.21,0,0,0,236.777,335.668Z" transform="translate(-213 -322.018)" fill="#eee"/>
      <path id="Path_3185" data-name="Path 3185" d="M264.362,267.247a8.144,8.144,0,0,0,6.773,6.993l.343-2.395a5.727,5.727,0,0,1-4.723-4.952,27.333,27.333,0,0,1,0-7.963l-2.394-.352a29.757,29.757,0,0,0,0,8.669Z" transform="translate(-259.703 -251.483)" fill="#eee"/>
      <path id="Path_3186" data-name="Path 3186" d="M373.185,183.577l2.394-.349a8.181,8.181,0,0,0-6.786-7.034l-.348,2.394A5.763,5.763,0,0,1,373.185,183.577Z" transform="translate(-355.225 -176.104)" fill="#eee"/>
      <path id="Path_3187" data-name="Path 3187" d="M347.862,177.609h0a3.849,3.849,0,0,1,1.109,0h0l.156.023.348-2.394-.155-.023a6.275,6.275,0,0,0-1.807,0l-.181.026.349,2.394Z" transform="translate(-335.91 -175.149)" fill="#eee"/>
      <path id="Path_3188" data-name="Path 3188" d="M274.895,178.628l-.349-2.394a8.157,8.157,0,0,0-6.765,7l2.394.353A5.739,5.739,0,0,1,274.895,178.628Z" transform="translate(-263.122 -176.142)" fill="#eee"/>
    </g>
    <g id="Group_45" data-name="Group 45" transform="translate(64.755 86.998)">
      <path id="Path_3189" data-name="Path 3189" d="M157.945,485.259A2.241,2.241,0,0,0,155.7,487.5v2.435a2.241,2.241,0,1,0,4.481,0V487.5A2.241,2.241,0,0,0,157.945,485.259Z" transform="translate(-147.97 -477.924)" fill="#eee"/>
      <path id="Path_3190" data-name="Path 3190" d="M67,399a2.241,2.241,0,0,0-2.241,2.24v2.45a2.241,2.241,0,0,0,4.481,0v-2.448A2.24,2.24,0,0,0,67,399Z" transform="translate(-64.755 -399)" fill="#eee"/>
      <path id="Path_3191" data-name="Path 3191" d="M67,506.67a2.241,2.241,0,0,0-2.241,2.24v7.963a2.241,2.241,0,1,0,4.481,0v-7.963A2.241,2.241,0,0,0,67,506.67Z" transform="translate(-64.755 -497.514)" fill="#eee"/>
    </g>
    <g id="Group_46" data-name="Group 46" transform="translate(102.329 58)">
      <path id="Path_3192" data-name="Path 3192" d="M508.842,151.333a2.241,2.241,0,0,0,2.24-2.241v-2.435a2.24,2.24,0,1,0-4.481,0v2.435A2.241,2.241,0,0,0,508.842,151.333Z" transform="translate(-506.602 -137.068)" fill="#eee"/>
      <path id="Path_3193" data-name="Path 3193" d="M599.792,237.432a2.24,2.24,0,0,0,2.24-2.241v-2.45a2.24,2.24,0,1,0-4.481,0v2.448a2.24,2.24,0,0,0,2.239,2.242Z" transform="translate(-589.817 -215.832)" fill="#eee"/>
      <path id="Path_3194" data-name="Path 3194" d="M599.792,70.444a2.24,2.24,0,0,0,2.24-2.241V60.241a2.24,2.24,0,1,0-4.481,0V68.2A2.24,2.24,0,0,0,599.792,70.444Z" transform="translate(-589.817 -58)" fill="#eee"/>
    </g>
  </g>
</svg>
