<svg xmlns="http://www.w3.org/2000/svg" width="237.436" height="241.292" viewBox="0 0 237.436 241.292">
  <g id="logo_XL" transform="translate(-64.755 -58)">
    <g id="Group_44" data-name="Group 44" transform="translate(124.873 105.508)">
      <path id="Union_3" data-name="Union 3" d="M34.7,108.649l.962-6.717-.967,6.719-.882-.127c-16.79-2.409-29.76-16.146-32.3-33.351h0a141.9,141.9,0,0,1,0-41.34l11.415,1.679a130.293,130.293,0,0,0,0,37.976C14.779,86.045,24.108,95.474,35.45,97.1l-1.169,8.155L35.455,97.1l.885.127v0a18.436,18.436,0,0,0,5.211,0l.768-.11,1.638,11.421-.768.11a29.935,29.935,0,0,1-8.49,0ZM42.32,97.12C53.728,95.484,63.1,85.993,64.944,73.364a130.851,130.851,0,0,0,0-37.728L76.362,33.97a142.336,142.336,0,0,1,0,41.06c-2.521,17.281-15.538,31.092-32.4,33.51Zm.018-85.278L44,.423C60.851,2.875,73.843,16.7,76.362,33.969L64.944,35.635C63.106,23.007,53.738,13.5,42.339,11.841ZM1.515,33.828C4.05,16.638,16.994,2.883,33.776.44l1.664,11.418C24.1,13.506,14.78,22.954,12.93,35.512ZM33.776.437l.863-.125a29.934,29.934,0,0,1,8.616,0L44,.423,42.336,11.841l-.746-.11a18.369,18.369,0,0,0-5.289,0v0l-.862.125Z" transform="translate(20.7 0)" fill="#ff5722" stroke="rgba(0,0,0,0)" stroke-miterlimit="10" stroke-width="1"/>
      <path id="Path_3184" data-name="Path 3184" d="M326.387,335.668a5.769,5.769,0,0,0-5.7,5.7h0c0,28.684-21.84,51.347-48.077,51.347s-48.077-22.663-48.077-51.347h.005a5.769,5.769,0,0,0-11.538,0h0c0,32.388,23.373,59.516,53.841,62.588V414.8h0a5.769,5.769,0,0,0,11.537,0V403.954c30.469-3.072,53.841-30.2,53.841-62.588h0A5.769,5.769,0,0,0,326.387,335.668Z" transform="translate(-213 -270.572)" fill="#00adb5"/>
    </g>
    <g id="Group_45" data-name="Group 45" transform="translate(64.755 196.286)">
      <path id="Path_3189" data-name="Path 3189" d="M166.389,485.259A10.685,10.685,0,0,0,155.7,495.944v11.611a10.685,10.685,0,0,0,21.369,0V495.944A10.685,10.685,0,0,0,166.389,485.259Z" transform="translate(-118.821 -450.278)" fill="#ff5722"/>
      <path id="Path_3190" data-name="Path 3190" d="M75.44,399a10.685,10.685,0,0,0-10.685,10.685v11.682a10.685,10.685,0,1,0,21.369,0V409.691A10.684,10.684,0,0,0,75.447,399Z" transform="translate(-64.755 -399)" fill="#00adb5"/>
      <path id="Path_3191" data-name="Path 3191" d="M75.44,506.67a10.685,10.685,0,0,0-10.685,10.685v37.973a10.685,10.685,0,1,0,21.369,0V517.355A10.685,10.685,0,0,0,75.44,506.67Z" transform="translate(-64.755 -463.006)" fill="#00adb5"/>
    </g>
    <g id="Group_46" data-name="Group 46" transform="translate(243.938 58)">
      <path id="Path_3192" data-name="Path 3192" d="M517.287,177.4a10.685,10.685,0,0,0,10.685-10.685V155.1a10.685,10.685,0,0,0-21.369,0v11.611A10.685,10.685,0,0,0,517.287,177.4Z" transform="translate(-506.602 -109.372)" fill="#00adb5"/>
      <path id="Path_3193" data-name="Path 3193" d="M608.236,263.552a10.685,10.685,0,0,0,10.684-10.685V241.186a10.685,10.685,0,1,0-21.369,0V252.86a10.684,10.684,0,0,0,10.677,10.692Z" transform="translate(-560.668 -160.546)" fill="#00adb5"/>
      <path id="Path_3194" data-name="Path 3194" d="M608.236,117.342a10.685,10.685,0,0,0,10.684-10.685V68.685a10.685,10.685,0,0,0-21.369,0v37.973A10.685,10.685,0,0,0,608.236,117.342Z" transform="translate(-560.668 -58)" fill="#ff5722"/>
    </g>
  </g>
</svg>
