<svg xmlns="http://www.w3.org/2000/svg" width="139.877" height="142.149" viewBox="0 0 139.877 142.149">
  <g id="logo" transform="translate(-64.755 -58)">
    <g id="Group_44" data-name="Group 44" transform="translate(100.172 85.988)">
      <path id="Union_3" data-name="Union 3" d="M-150.975-4.405l.567-3.957-.57,3.958-.519-.075c-9.891-1.419-17.532-9.512-19.027-19.648h0a83.593,83.593,0,0,1,0-24.354l6.725.989a76.759,76.759,0,0,0,0,22.372c1.09,7.4,6.586,12.953,13.268,13.912l-.688,4.8.691-4.805.521.075h0a10.861,10.861,0,0,0,3.07,0l.453-.065.965,6.728-.453.065a17.641,17.641,0,0,1-2.5.178A17.629,17.629,0,0,1-150.975-4.405Zm4.49-6.792c6.72-.964,12.243-6.555,13.328-13.995a77.087,77.087,0,0,0,0-22.226l6.727-.981a83.853,83.853,0,0,1,0,24.189c-1.485,10.181-9.154,18.317-19.09,19.742Zm.011-50.239.978-6.727c9.928,1.444,17.581,9.589,19.066,19.762l-6.727.982C-134.24-54.859-139.758-60.459-146.474-61.437Zm-24.05,12.953c1.493-10.127,9.119-18.23,19.005-19.67l.98,6.727c-6.681.971-12.171,6.537-13.261,13.935Zm19.005-19.671.508-.074a17.634,17.634,0,0,1,5.076,0l.436.066-.978,6.727-.439-.065a10.822,10.822,0,0,0-3.116,0v0l-.508.074Z" transform="translate(183.611 68.413)" fill="#ff5722" stroke="rgba(0,0,0,0)" stroke-miterlimit="10" stroke-width="1"/>
      <path id="Path_3184" data-name="Path 3184" d="M279.8,335.668a3.4,3.4,0,0,0-3.357,3.356h0c0,16.9-12.866,30.25-28.323,30.25s-28.323-13.351-28.323-30.25h0a3.4,3.4,0,0,0-6.8,0h0c0,19.08,13.769,35.062,31.719,36.872v6.391h0a3.4,3.4,0,0,0,6.8,0V375.9c17.95-1.81,31.719-17.791,31.719-36.872h0A3.4,3.4,0,0,0,279.8,335.668Z" transform="translate(-213 -297.319)" fill="#00adb5"/>
    </g>
    <g id="Group_45" data-name="Group 45" transform="translate(64.755 139.467)">
      <path id="Path_3189" data-name="Path 3189" d="M162,485.259a6.294,6.294,0,0,0-6.294,6.294v6.84a6.294,6.294,0,0,0,12.589,0v-6.84A6.294,6.294,0,0,0,162,485.259Z" transform="translate(-133.976 -464.651)" fill="#ff5722"/>
      <path id="Path_3190" data-name="Path 3190" d="M71.049,399a6.3,6.3,0,0,0-6.294,6.294v6.882a6.294,6.294,0,1,0,12.589,0V405.3a6.294,6.294,0,0,0-6.29-6.3Z" transform="translate(-64.755 -399)" fill="#00adb5"/>
      <path id="Path_3191" data-name="Path 3191" d="M71.049,506.67a6.3,6.3,0,0,0-6.294,6.295v22.37a6.294,6.294,0,1,0,12.589,0v-22.37A6.3,6.3,0,0,0,71.049,506.67Z" transform="translate(-64.755 -480.947)" fill="#00adb5"/>
    </g>
    <g id="Group_46" data-name="Group 46" transform="translate(170.315 58)">
      <path id="Path_3192" data-name="Path 3192" d="M512.9,163.846a6.3,6.3,0,0,0,6.295-6.294v-6.84a6.295,6.295,0,0,0-12.589,0v6.84A6.294,6.294,0,0,0,512.9,163.846Z" transform="translate(-506.602 -123.771)" fill="#00adb5"/>
      <path id="Path_3193" data-name="Path 3193" d="M603.846,249.972a6.294,6.294,0,0,0,6.294-6.294V236.8a6.294,6.294,0,1,0-12.589,0v6.878a6.294,6.294,0,0,0,6.29,6.3Z" transform="translate(-575.823 -189.289)" fill="#00adb5"/>
      <path id="Path_3194" data-name="Path 3194" d="M603.846,92.959a6.294,6.294,0,0,0,6.294-6.294V64.294a6.294,6.294,0,0,0-12.589,0v22.37A6.294,6.294,0,0,0,603.846,92.959Z" transform="translate(-575.823 -58)" fill="#ff5722"/>
    </g>
  </g>
</svg>
