<svg xmlns="http://www.w3.org/2000/svg" xmlns:xlink="http://www.w3.org/1999/xlink" width="76.182" height="76.182" viewBox="0 0 76.182 76.182">
  <defs>
    <filter id="next-page-shadow" x="0" y="0" width="76.182" height="76.182" filterUnits="userSpaceOnUse">
      <feOffset dy="3" input="SourceAlpha"/>
      <feGaussianBlur stdDeviation="3" result="blur"/>
      <feFlood flood-color="#222831" flood-opacity="0.349"/>
      <feComposite operator="in" in2="blur"/>
      <feComposite in="SourceGraphic"/>
    </filter>
  </defs>
  <g transform="matrix(1, 0, 0, 1, 0, 0)" filter="url(#next-page-shadow)">
    <path id="next-page-shadow-2" data-name="next-page-shadow" d="M32.091,3A29.091,29.091,0,1,0,61.182,32.091,29.092,29.092,0,0,0,32.091,3ZM43.5,33.8,28.956,48.35a2.424,2.424,0,0,1-3.428-3.428L38.36,32.091,25.528,19.259a2.424,2.424,0,0,1,3.428-3.428L43.5,30.377A2.422,2.422,0,0,1,43.5,33.8Z" transform="translate(6 3)" fill="#eee"/>
  </g>
</svg>
