<svg id="Radio_Stations_white" xmlns="http://www.w3.org/2000/svg" width="20.673" height="23.521" viewBox="0 0 20.673 23.521">
  <path id="Icon-Radio_Stations" data-name="Icon-Radio Stations" d="M13.825,23.072l-.363-.975H7.211l-.363.975a.689.689,0,0,1-1.292-.481c.621-1.668,3.085-8.293,3.868-10.4a2.067,2.067,0,1,1,1.825,0c3.122,8.4,3.86,10.38,3.867,10.4a.689.689,0,1,1-1.292.48Zm-6.1-2.354H12.95l-.513-1.378h-4.2Zm1.025-2.756h3.177l-.513-1.378H9.261Zm1.025-2.757H10.9l-.563-1.515Zm-.126-4.869a.689.689,0,1,0,.689-.689A.69.69,0,0,0,9.647,10.337Zm9.647,0a8.958,8.958,0,1,0-17.915,0,.689.689,0,0,1-1.379,0,10.337,10.337,0,0,1,20.673,0,.689.689,0,0,1-1.379,0Zm-2.756,0a6.2,6.2,0,0,0-12.4,0,.689.689,0,0,1-1.378,0,7.58,7.58,0,1,1,15.16,0,.689.689,0,0,1-1.378,0Zm-2.757,0a3.445,3.445,0,1,0-6.89,0,.689.689,0,0,1-1.379,0,4.824,4.824,0,1,1,9.647,0,.689.689,0,0,1-1.378,0Z" fill="#eee"/>
</svg>
